<svg xmlns="http://www.w3.org/2000/svg" version="1.1" xmlns:xlink="http://www.w3.org/1999/xlink" xmlns:svgjs="http://svgjs.dev/svgjs" width="100%" height="100%" viewBox="0 0 1000 600"><rect width="1000" height="600" x="0" y="0" fill="#ee4e34"/><g><circle r="166.66666666666666" cx="426.84818522135413" cy="449.0704514698932" fill="#fcedda" transform="matrix(0.480433704019527,0,0,0.480433704019527,0,84.25140604545193)"/><path d="M353.96999359249406 374.07046453666453L376.86783180586684 374.07046453666453L426.31773209163185 497.5478675148263L427.58492262338865 497.5478675148263L477.24110973990474 374.07046453666453L499.72637429177524 374.07046453666453L499.72637429177524 524.0704600399685L482.3393414141821 524.0704600399685L482.3393414141821 408.8445302918509L481.04268133517513 408.8445302918509L434.362918490925 524.0704600399685L419.09769301534317 524.0704600399685L372.6242170018441 408.8445302918509L371.3570264700873 408.8445302918509L371.3570264700873 524.0704600399685L353.96999359249406 524.0704600399685L353.96999359249406 374.07046453666453Z " fill="#ee4e34" transform="matrix(0.480433704019527,0,0,0.480433704019527,0,84.25140604545193)"/><path d="M676.8481826928383 375.68529769175836L694.2749158702984 375.68529769175836L731.9094825006433 469.65957312748253L732.873896305831 469.65957312748253L770.6654605323691 375.68529769175836L787.7781985174425 375.68529769175836L787.7781985174425 489.84497835233975L774.5455439811473 489.84497835233975L774.5455439811473 402.15060676434894L773.558701947932 402.15060676434894L738.0323887521834 489.84497835233975L726.4145666338767 489.84497835233975L691.0452510343213 402.15060676434894L690.0808372291336 402.15060676434894L690.0808372291336 489.84497835233975L676.8481826928383 489.84497835233975L676.8481826928383 375.68529769175836ZM814.4229334142541 453.35425135140343L814.5799310104475 443.17183582686437L869.4842332220591 443.17183582686437Q869.3272356258657 430.58959990337 863.5856092507953 424.1302702314157Q857.8664111037524 417.67094055946137 846.226160757418 417.67094055946137L846.226160757418 417.67094055946137Q833.3075014135094 417.67094055946137 827.3415927581627 425.49839214110045Q821.3756841028161 433.32584372273953 821.3756841028161 448.666751693631L821.3756841028161 448.666751693631Q821.3756841028161 464.32165485690916 827.2518798460522 472.3285322627692Q833.1505038173161 480.3129814406016 847.3700003868266 480.3129814406016L847.3700003868266 480.3129814406016Q856.9019972985648 480.3129814406016 861.2530735359229 477.2403142008178Q865.6041497732809 474.1900751890616 867.2189821912696 469.0091545146816L867.2189821912696 469.0091545146816L881.2814811645868 469.0091545146816Q879.6666487465982 475.4684841866359 875.4725701054334 480.5596919489054Q871.256063236241 485.650899711175 864.3930254597896 488.5441411267378Q857.5299876833382 491.4598107703283 847.3700003868266 491.4598107703283L847.3700003868266 491.4598107703283Q827.9920113709637 491.4598107703283 818.0563063547285 480.3129814406016Q808.1206013384932 469.1661521108749 808.1206013384932 448.9807468860177L808.1206013384932 448.9807468860177Q808.1206013384932 428.48134646877384 818.0563063547285 417.49151473524046Q827.9920113709637 406.5241112297347 846.226160757418 406.5241112297347L846.226160757418 406.5241112297347Q856.2515786857638 406.5241112297347 864.4827383719 410.71818987089944Q872.7138980580363 414.91226851206426 877.7153929081953 424.1302702314157Q882.7393159863819 433.32584372273953 882.7393159863819 448.8237492898244L882.7393159863819 448.8237492898244L882.7393159863819 453.35425135140343L814.4229334142541 453.35425135140343ZM936.3427809723918 491.4598107703283L936.3427809723918 491.4598107703283Q916.6507967641421 491.4598107703283 906.9618022562107 480.4026943527121Q897.2728077482792 469.3455779350959 897.2728077482792 448.9807468860177L897.2728077482792 448.9807468860177Q897.2728077482792 428.63834406496716 907.2757974485974 417.5812276473509Q917.2787871489155 406.5241112297347 936.028785780005 406.5241112297347L936.028785780005 406.5241112297347Q945.5383544637156 406.5241112297347 952.8051003446642 409.8210607497947Q960.0718462256128 413.1404384978823 964.6023482871918 418.9493495570357Q969.132850348771 424.75826061618903 970.0972641539585 432.5184275137452L970.0972641539585 432.5184275137452L956.6851837934423 432.5184275137452Q955.7207699882546 426.2160954379843 951.1229832425928 422.11172970892994Q946.5251964969308 417.98493575184807 936.1857833761984 417.98493575184807L936.1857833761984 417.98493575184807Q922.4597078232955 417.98493575184807 916.4713709399211 426.14881075390144Q910.5054622845745 434.29025752792717 910.5054622845745 448.9807468860177L910.5054622845745 448.9807468860177Q910.5054622845745 463.6936644721359 916.4713709399211 471.8351112461616Q922.4597078232955 479.998986248215 936.1857833761984 479.998986248215L936.1857833761984 479.998986248215Q946.0317754803233 479.998986248215 950.8762727342889 476.522610903934Q955.7207699882546 473.04623555965304 956.6851837934423 466.1159130991187L956.6851837934423 466.1159130991187L970.4112593463452 466.1159130991187Q969.4468455411576 473.20323315584636 965.3200515840757 478.94485953091686Q961.2156858550214 484.68648590598735 953.8592270619623 488.07314833815786Q946.5251964969308 491.4598107703283 936.3427809723918 491.4598107703283ZM1061.3352957703132 478.3841538302264L1061.3352957703132 489.84497835233975L1052.6107150675693 489.84497835233975Q1046.6448064122228 489.84497835233975 1043.4151415762453 485.8078973073683Q1040.1854767402683 481.77081626239686 1040.0060509160476 472.575242771073L1040.0060509160476 472.575242771073L1041.8003091582568 473.04623555965304Q1038.7276419184732 481.4568210700102 1031.7076065458282 486.4583159201693Q1024.6651429451558 491.4598107703283 1012.8903232306558 491.4598107703283L1012.8903232306558 491.4598107703283Q1003.8517473355254 491.4598107703283 997.4597023476539 488.7235669509588Q991.09008558781 485.9648949035617 987.7707078397225 480.46997903679494Q984.4737583196624 474.9974913980559 984.4737583196624 466.5869058876987L984.4737583196624 466.5869058876987Q984.4737583196624 459.9705786195511 986.8960069466453 455.3727918738891Q989.3182555736282 450.77500512822724 993.5796188988758 447.94904839674723Q997.863410452151 445.1230916652672 1003.515323915111 443.7325415275548Q1009.167237378071 442.36441961787006 1015.469569453832 442.36441961787006L1015.469569453832 442.36441961787006L1040.1854767402683 442.36441961787006L1040.1854767402683 434.62668094834146Q1040.1854767402683 426.05909784179096 1035.5652617665787 421.86501920062614Q1030.967475020917 417.67094055946137 1020.6280619001844 417.67094055946137L1020.6280619001844 417.67094055946137Q1011.4324884088606 417.67094055946137 1006.7449887510883 421.0576029916319Q1002.0574890933158 424.44426542380234 1001.0930752881283 431.06059269195L1001.0930752881283 431.06059269195L987.7034231556396 431.06059269195Q988.5108393646339 423.14342819820047 992.7049180057987 417.7382252435442Q996.8989966469634 412.333022288888 1004.1657425279119 409.41735264529757Q1011.4324884088606 406.5241112297347 1021.121482916792 406.5241112297347L1021.121482916792 406.5241112297347Q1027.4238149925532 406.5241112297347 1033.2327260517063 407.9819460515299Q1039.04163711086 409.41735264529757 1043.5721391724387 412.8264433054956Q1048.0802130059901 416.2131057376661 1050.749172141277 421.86501920062614Q1053.4181312765636 427.5169326635862 1053.4181312765636 435.90508994591573L1053.4181312765636 435.90508994591573L1053.4181312765636 478.3841538302264L1061.3352957703132 478.3841538302264ZM997.5494152597644 466.5869058876987L997.5494152597644 466.5869058876987Q997.5494152597644 473.53965657626065 1001.7434939009291 476.92631900843116Q1005.937572542094 480.3129814406016 1014.5051556486445 480.3129814406016L1014.5051556486445 480.3129814406016Q1026.4594011873655 480.3129814406016 1033.3224389638167 474.6610679776416Q1040.1854767402683 469.0091545146816 1040.1854767402683 459.6565834271644L1040.1854767402683 459.6565834271644L1040.1854767402683 452.7038327386025L1015.6265670500253 452.7038327386025Q1006.9019863472815 452.7038327386025 1002.3041996016196 456.2474927669663Q997.7064128559576 459.81358102335776 997.5494152597644 466.5869058876987ZM1091.0526979069086 441.89342682929004L1091.0526979069086 489.84497835233975L1077.7976151425855 489.84497835233975L1077.7976151425855 408.29594124391656L1091.0526979069086 408.29594124391656L1091.0526979069086 420.7211795712176Q1094.9103531276592 414.44127572348424 1100.6519795027298 410.47147936259563Q1106.3936058778 406.5241112297347 1116.2395979819248 406.5241112297347L1116.2395979819248 406.5241112297347Q1129.6292501144135 406.5241112297347 1137.3894170119697 414.0375676189871Q1145.149583909526 421.52859578021184 1145.149583909526 438.8207595895062L1145.149583909526 438.8207595895062L1145.149583909526 489.84497835233975L1131.73750354901 489.84497835233975L1131.73750354901 439.29175237808624Q1131.73750354901 427.6739302597795 1126.893006295044 422.82943300581377Q1122.048509041078 417.98493575184807 1112.8529355497544 417.98493575184807L1112.8529355497544 417.98493575184807Q1106.2141800535792 417.98493575184807 1101.3023981155307 420.4071843788309Q1096.3681879494543 422.82943300581377 1093.6992288141678 427.98792545216617Q1091.0526979069086 433.1688461265462 1091.0526979069086 441.89342682929004L1091.0526979069086 441.89342682929004ZM1202.9471275367005 491.4598107703283L1202.9471275367005 491.4598107703283Q1184.533552326025 491.4598107703283 1174.5305626257068 480.46997903679494Q1164.527572925389 469.5025755312892 1164.527572925389 449.16017271023867L1164.527572925389 449.16017271023867Q1164.527572925389 428.63834406496716 1174.5305626257068 417.5812276473509Q1184.533552326025 406.5241112297347 1202.9471275367005 406.5241112297347L1202.9471275367005 406.5241112297347Q1215.2153682678081 406.5241112297347 1223.7829513743586 411.43589316778326Q1232.3505344809091 416.37010333385945 1236.948321226571 425.81238733348715Q1241.5461079722331 435.2546713331148 1241.5461079722331 448.9807468860177L1241.5461079722331 448.9807468860177Q1241.5461079722331 469.65957312748253 1231.4534053598045 480.5596919489054Q1221.3607027473759 491.4598107703283 1202.9471275367005 491.4598107703283ZM1202.9471275367005 479.998986248215L1202.9471275367005 479.998986248215Q1215.865786880609 479.998986248215 1222.0784060442597 471.9921088423549Q1228.3134534359378 464.0076596645225 1228.3134534359378 449.16017271023867L1228.3134534359378 449.16017271023867Q1228.3134534359378 434.29025752792717 1222.0784060442597 426.14881075390144Q1215.865786880609 417.98493575184807 1202.9471275367005 417.98493575184807L1202.9471275367005 417.98493575184807Q1190.1854657889853 417.98493575184807 1183.9728466253346 426.14881075390144Q1177.7602274616843 434.29025752792717 1177.7602274616843 449.16017271023867L1177.7602274616843 449.16017271023867Q1177.7602274616843 464.0076596645225 1183.9728466253346 471.9921088423549Q1190.1854657889853 479.998986248215 1202.9471275367005 479.998986248215ZM1291.4489153336858 488.7235669509588L1291.4489153336858 488.7235669509588Q1274.8071701371923 488.7235669509588 1265.6115966458683 478.04773040981206Q1256.393594926517 467.39432209669303 1256.393594926517 447.85933548463674L1256.393594926517 447.85933548463674Q1256.393594926517 434.29025752792717 1260.6101017957094 425.16196872068616Q1264.804180436874 416.0561081414728 1272.7213449306237 411.27889557158994Q1280.6160811963455 406.5241112297347 1291.4489153336858 406.5241112297347L1291.4489153336858 406.5241112297347Q1302.4163188391913 406.5241112297347 1309.5260671239466 411.8396012722804Q1316.635815408702 417.17751954285376 1320.0224778408724 426.4628059462881Q1323.4091402730428 435.7480923497224 1323.4091402730428 447.85933548463674L1323.4091402730428 447.85933548463674Q1323.4091402730428 459.6565834271644 1320.0224778408724 468.94186983059876Q1316.635815408702 478.22715623403303 1309.5260671239466 483.4753615924959Q1302.4163188391913 488.7235669509588 1291.4489153336858 488.7235669509588ZM1294.8355777658562 477.4197400250388L1294.8355777658562 477.4197400250388Q1307.1038184969639 477.4197400250388 1312.912729556117 469.5025755312892Q1318.744068843298 461.58541103753964 1318.744068843298 447.85933548463674L1318.744068843298 447.85933548463674Q1318.744068843298 433.81926473934715 1312.912729556117 425.9021002455976Q1307.1038184969639 417.98493575184807 1294.8355777658562 417.98493575184807L1294.8355777658562 417.98493575184807Q1281.9169184219472 417.98493575184807 1275.77158394238 425.9021002455976Q1269.64867769084 433.81926473934715 1269.64867769084 447.85933548463674L1269.64867769084 447.85933548463674Q1269.64867769084 461.58541103753964 1275.77158394238 469.5025755312892Q1281.9169184219472 477.4197400250388 1294.8355777658562 477.4197400250388ZM1318.9010664394914 427.02351164697853L1318.9010664394914 408.29594124391656L1331.9767233795933 408.29594124391656L1331.9767233795933 489.84497835233975L1318.744068843298 489.84497835233975L1318.744068843298 428.16735127638714L1318.9010664394914 427.02351164697853ZM1318.744068843298 487.91615074196454L1331.9767233795933 487.91615074196454Q1332.1337209757867 506.64372114502646 1323.588566097264 515.3683018477703Q1315.0209829907135 524.0704543224865 1297.257826392839 524.0704543224865L1297.257826392839 524.0704543224865Q1285.303580854118 524.0704543224865 1277.7901244648656 521.0874999948132Q1270.299096303641 518.1045456671399 1266.4862975389456 512.5423451162903Q1262.695927002278 506.95771633741316 1261.8885107932838 499.3769752640779L1261.8885107932838 499.3769752640779L1275.77158394238 499.3769752640779Q1276.2650049589874 503.72805150143597 1278.1265478852797 506.80071874121984Q1279.9880908115724 509.87338598100365 1284.4288799610408 511.3312208027989Q1288.8696691105092 512.7666273965665 1297.257826392839 512.7666273965665L1297.257826392839 512.7666273965665Q1306.1394046917762 512.7666273965665 1310.737191437438 510.12009648930746Q1315.3349781831002 507.4511373540208 1317.0395235131991 501.9562214872541Q1318.744068843298 496.4613056204874 1318.744068843298 487.91615074196454L1318.744068843298 487.91615074196454ZM1370.2392803947118 441.55700340887574L1370.2392803947118 489.84497835233975L1357.0066258584166 489.84497835233975L1357.0066258584166 408.29594124391656L1370.2392803947118 408.29594124391656L1370.2392803947118 422.67243540962045Q1373.154950038302 415.7196847210585 1378.4031553967648 412.01902709650136Q1383.6513607552279 408.29594124391656 1391.5685252489775 408.29594124391656L1391.5685252489775 408.29594124391656L1398.8352711299262 408.29594124391656L1398.8352711299262 419.59976816983664L1389.7966952347956 419.59976816983664Q1380.2646983230575 419.59976816983664 1375.263203472898 425.0946840366033Q1370.2392803947118 430.58959990337 1370.2392803947118 441.55700340887574L1370.2392803947118 441.55700340887574ZM1482.6495592691385 478.3841538302264L1482.6495592691385 489.84497835233975L1473.9249785663947 489.84497835233975Q1467.9366416830208 489.84497835233975 1464.7069768470433 485.8078973073683Q1461.4773120110663 481.77081626239686 1461.3203144148729 472.575242771073L1461.3203144148729 472.575242771073L1463.0921444290548 473.04623555965304Q1460.0419054172985 481.4568210700102 1452.9994418166261 486.4583159201693Q1445.9794064439816 491.4598107703283 1434.2045867294814 491.4598107703283L1434.2045867294814 491.4598107703283Q1425.1435826063234 491.4598107703283 1418.7739658464793 488.7235669509588Q1412.4043490866356 485.9648949035617 1409.0849713385478 480.46997903679494Q1405.7655935904604 474.9974913980559 1405.7655935904604 466.5869058876987L1405.7655935904604 466.5869058876987Q1405.7655935904604 459.9705786195511 1408.1878422174432 455.3727918738891Q1410.610090844426 450.77500512822724 1414.8938823977014 447.94904839674723Q1419.1776739509764 445.1230916652672 1424.8295874139367 443.7325415275548Q1430.4815008768965 442.36441961787006 1436.7838329526576 442.36441961787006L1436.7838329526576 442.36441961787006L1461.4773120110663 442.36441961787006L1461.4773120110663 434.62668094834146Q1461.4773120110663 426.05909784179096 1456.8795252654045 421.86501920062614Q1452.2817385197427 417.67094055946137 1441.9423253990099 417.67094055946137L1441.9423253990099 417.67094055946137Q1432.7467519076863 417.67094055946137 1428.0592522499137 421.0576029916319Q1423.371752592141 424.44426542380234 1422.407338786954 431.06059269195L1422.407338786954 431.06059269195L1408.9952584264374 431.06059269195Q1409.8026746354317 423.14342819820047 1414.0191815046242 417.7382252435442Q1418.2132601457888 412.333022288888 1425.4800060267376 409.41735264529757Q1432.7467519076863 406.5241112297347 1442.4357464156178 406.5241112297347L1442.4357464156178 406.5241112297347Q1448.7380784913785 406.5241112297347 1454.546989550532 407.9819460515299Q1460.3559006096852 409.41735264529757 1464.8864026712645 412.8264433054956Q1469.3944765048159 416.2131057376661 1472.0634356401024 421.86501920062614Q1474.7323947753894 427.5169326635862 1474.7323947753894 435.90508994591573L1474.7323947753894 435.90508994591573L1474.7323947753894 478.3841538302264L1482.6495592691385 478.3841538302264ZM1418.8636787585897 466.5869058876987L1418.8636787585897 466.5869058876987Q1418.8636787585897 473.53965657626065 1423.0577573997548 476.92631900843116Q1427.2518360409194 480.3129814406016 1435.81941914747 480.3129814406016L1435.81941914747 480.3129814406016Q1447.7512364581635 480.3129814406016 1454.6142742346146 474.6610679776416Q1461.4773120110663 469.0091545146816 1461.4773120110663 459.6565834271644L1461.4773120110663 459.6565834271644L1461.4773120110663 452.7038327386025L1436.940830548851 452.7038327386025Q1428.216249846107 452.7038327386025 1423.6184631004453 456.2474927669663Q1419.020676354783 459.81358102335776 1418.8636787585897 466.5869058876987ZM1517.9964466406664 385.53128979588314L1517.9964466406664 489.84497835233975L1504.763792104371 489.84497835233975L1504.763792104371 392.7980356768318Q1504.763792104371 386.9891246176784 1507.0963278192435 382.772617748486Q1509.4512917621437 378.57853910732126 1514.1387914199163 376.3132880765317Q1518.8038628496606 374.0704652737698 1525.913611134416 374.0704652737698L1525.913611134416 374.0704652737698L1538.5182752859382 374.0704652737698L1538.5182752859382 385.53128979588314L1517.9964466406664 385.53128979588314ZM1537.0604404641426 419.59976816983664L1490.880718955275 419.59976816983664L1490.880718955275 408.29594124391656L1537.0604404641426 408.29594124391656L1537.0604404641426 419.59976816983664ZM1551.1005112094322 408.29594124391656L1564.3555939737553 408.29594124391656L1564.3555939737553 489.84497835233975L1551.1005112094322 489.84497835233975L1551.1005112094322 408.29594124391656ZM1550.1360974042445 389.8823660332413L1550.1360974042445 374.0704652737698L1565.1630101827495 374.0704652737698L1565.1630101827495 389.8823660332413L1550.1360974042445 389.8823660332413ZM1661.0885414568766 478.3841538302264L1661.0885414568766 489.84497835233975L1652.3639607541327 489.84497835233975Q1646.3756238707583 489.84497835233975 1643.1459590347813 485.8078973073683Q1639.9162941988043 481.77081626239686 1639.759296602611 472.575242771073L1639.759296602611 472.575242771073L1641.5311266167928 473.04623555965304Q1638.4808876050365 481.4568210700102 1631.4384240043642 486.4583159201693Q1624.4183886317196 491.4598107703283 1612.6435689172195 491.4598107703283L1612.6435689172195 491.4598107703283Q1603.582564794061 491.4598107703283 1597.2129480342173 488.7235669509588Q1590.8433312743732 485.9648949035617 1587.5239535262858 480.46997903679494Q1584.2045757781984 474.9974913980559 1584.2045757781984 466.5869058876987L1584.2045757781984 466.5869058876987Q1584.2045757781984 459.9705786195511 1586.6268244051812 455.3727918738891Q1589.049073032164 450.77500512822724 1593.3328645854394 447.94904839674723Q1597.6166561387145 445.1230916652672 1603.2685696016747 443.7325415275548Q1608.9204830646345 442.36441961787006 1615.2228151403956 442.36441961787006L1615.2228151403956 442.36441961787006L1639.9162941988043 442.36441961787006L1639.9162941988043 434.62668094834146Q1639.9162941988043 426.05909784179096 1635.318507453142 421.86501920062614Q1630.7207207074803 417.67094055946137 1620.3813075867479 417.67094055946137L1620.3813075867479 417.67094055946137Q1611.1857340954239 417.67094055946137 1606.4982344376517 421.0576029916319Q1601.810734779879 424.44426542380234 1600.8463209746915 431.06059269195L1600.8463209746915 431.06059269195L1587.4342406141755 431.06059269195Q1588.2416568231697 423.14342819820047 1592.4581636923622 417.7382252435442Q1596.6522423335268 412.333022288888 1603.9189882144756 409.41735264529757Q1611.1857340954239 406.5241112297347 1620.8747286033554 406.5241112297347L1620.8747286033554 406.5241112297347Q1627.1770606791165 406.5241112297347 1632.98597173827 407.9819460515299Q1638.7948827974233 409.41735264529757 1643.325384859002 412.8264433054956Q1647.833458692554 416.2131057376661 1650.5024178278404 421.86501920062614Q1653.171376963127 427.5169326635862 1653.171376963127 435.90508994591573L1653.171376963127 435.90508994591573L1653.171376963127 478.3841538302264L1661.0885414568766 478.3841538302264ZM1597.3026609463277 466.5869058876987L1597.3026609463277 466.5869058876987Q1597.3026609463277 473.53965657626065 1601.4967395874924 476.92631900843116Q1605.6908182286575 480.3129814406016 1614.258401335208 480.3129814406016L1614.258401335208 480.3129814406016Q1626.190218645901 480.3129814406016 1633.0532564223527 474.6610679776416Q1639.9162941988043 469.0091545146816 1639.9162941988043 459.6565834271644L1639.9162941988043 459.6565834271644L1639.9162941988043 452.7038327386025L1615.379812736589 452.7038327386025Q1606.655232033845 452.7038327386025 1602.0574452881829 456.2474927669663Q1597.459658542521 459.81358102335776 1597.3026609463277 466.5869058876987ZM1677.7078584253422 489.84497835233975L1677.7078584253422 471.9248241582721L1695.3140174270234 471.9248241582721L1695.3140174270234 489.84497835233975L1677.7078584253422 489.84497835233975ZM1735.3708326843512 408.29594124391656L1735.3708326843512 502.2702166796407Q1735.3708326843512 512.7666273965665 1730.4366225182748 517.6111246505322Q1725.502412352199 522.455621904498 1714.535008846693 522.455621904498L1714.535008846693 522.455621904498L1707.7392557543244 522.455621904498L1707.7392557543244 511.3312208027989L1722.1157499200285 511.3312208027989L1722.1157499200285 408.29594124391656L1735.3708326843512 408.29594124391656ZM1721.151336114841 389.8823660332413L1721.151336114841 374.0704652737698L1736.1782488933454 374.0704652737698L1736.1782488933454 389.8823660332413L1721.151336114841 389.8823660332413ZM1819.656113612144 429.7821836943757L1806.737454268235 429.7821836943757Q1805.773040463048 423.47985161861476 1801.6462465059658 420.6538948871347Q1797.5418807769115 417.8279381556547 1789.2882928627478 417.8279381556547L1789.2882928627478 417.8279381556547Q1780.4067145638105 417.8279381556547 1775.8089278181487 420.9678900795214Q1771.2111410724865 424.1302702314157 1771.2111410724865 429.13176508157477L1771.2111410724865 429.13176508157477Q1771.2111410724865 434.29025752792717 1774.844514012961 436.86950375110337Q1778.4778869534352 439.4711782023072 1785.9016304305774 441.2430082164891L1785.9016304305774 441.2430082164891L1798.820289774486 444.47267305246623Q1810.2811142965993 447.20891687183575 1815.7760301633657 452.7038327386025Q1821.2709460301326 458.19874860536913 1821.2709460301326 467.23732450049965L1821.2709460301326 467.23732450049965Q1821.2709460301326 477.7337352174254 1813.0397863439962 484.59677299387687Q1804.8086266578603 491.4598107703283 1788.0098838651734 491.4598107703283L1788.0098838651734 491.4598107703283Q1772.9829710866684 491.4598107703283 1764.9088089967258 485.49390211498167Q1756.8346469067828 479.5055652316073 1755.3768120849873 467.08032690430633L1755.3768120849873 467.08032690430633L1769.2823134621112 467.08032690430633Q1770.2467272672993 473.696654172454 1774.1268107160772 476.8366060963207Q1777.9844659368273 479.998986248215 1787.6734604447593 479.998986248215L1787.6734604447593 479.998986248215Q1798.6632921782925 479.998986248215 1803.2610789239543 476.6796085001273Q1807.8588656696165 473.3826589800673 1807.8588656696165 468.04474070949396L1807.8588656696165 468.04474070949396Q1807.8588656696165 463.0432458593349 1804.4722032374461 460.06029153166156Q1801.0855408052753 457.0549089759606 1793.5047997319402 455.1260813655853L1793.5047997319402 455.1260813655853L1780.5861403880313 451.8964165296082Q1769.4393110583046 449.16017271023867 1763.7873975953448 443.7325415275548Q1758.1354841323846 438.3273385728986 1758.1354841323846 429.939181290569L1758.1354841323846 429.939181290569Q1758.1354841323846 419.106347153229 1766.1199333102172 412.8264433054956Q1774.1268107160772 406.5241112297347 1789.2882928627478 406.5241112297347L1789.2882928627478 406.5241112297347Q1803.3507918360647 406.5241112297347 1811.0212458215105 412.4227352009985Q1818.6916998069564 418.2989309442347 1819.656113612144 429.7821836943757L1819.656113612144 429.7821836943757Z " fill="#fcedda" transform="matrix(0.480433704019527,0,0,0.480433704019527,0,84.25140604545193)"/></g></svg>